<svg width="15" height="15" viewBox="0 0 14.9762 15" fill="none" xmlns="http://www.w3.org/2000/svg">
<g id="Union">
<path fill-rule="evenodd" clip-rule="evenodd" d="M5.49967 1.36067e-09C7.36652 1.36067e-09 8.30063 -0.000355889 9.01367 0.362956C9.64076 0.682513 10.1508 1.19257 10.4704 1.81966C10.6404 2.15343 10.7283 2.53607 10.7764 3.03955H10.0618C8.95773 3.04011 8.0216 3.75764 7.69124 4.75179C7.34238 4.73264 6.9815 4.838 6.67887 5.09766L6.59098 5.17904L5.00977 6.76025C4.44134 7.32939 4.44084 8.25269 5.01058 8.82243L6.5918 10.4036C7.38245 11.1924 8.65456 10.8207 8.99414 9.87386H10.7471L10.8317 9.87142C10.8312 11.6027 10.8202 12.4939 10.4704 13.1803C10.1508 13.8074 9.64076 14.3175 9.01367 14.637C8.30063 15.0004 7.36652 15 5.49967 15H5.33366C3.46682 15 2.5327 15.0004 1.81966 14.637C1.19257 14.3175 0.682513 13.8074 0.362956 13.1803C-0.000355889 12.4673 1.36067e-09 11.5332 1.36067e-09 9.66634V5.33366C1.36049e-09 3.46682 -0.000355889 2.5327 0.362956 1.81966C0.682513 1.19257 1.19257 0.682513 1.81966 0.362956C2.5327 -0.000355889 3.46682 1.36049e-09 5.33366 1.36067e-09H5.49967ZM5.41667 12.0833C4.95643 12.0833 4.58333 12.4564 4.58333 12.9167C4.58333 13.3769 4.95643 13.75 5.41667 13.75C5.8769 13.75 6.25 13.3769 6.25 12.9167C6.25 12.4564 5.8769 12.0833 5.41667 12.0833Z" fill="var(--fill-0, #D3E0F8)"/>
<path d="M7.47477 6.06201C7.57329 5.96378 7.72383 5.9921 7.79297 6.09049C7.81613 6.12323 7.83032 6.16375 7.8304 6.21012V6.74886C7.83051 6.8454 7.89666 6.92547 7.98584 6.94906C8.0028 6.95352 8.02038 6.95638 8.03874 6.95638H11.7887C11.9036 6.95644 11.9969 7.04988 11.9971 7.16471V7.37305C11.997 8.03417 11.4832 8.57438 10.8333 8.61898L10.7471 8.62386H8.03874L7.99642 8.62874C7.90177 8.64827 7.83059 8.73181 7.8304 8.83219V9.37093C7.8303 9.45909 7.77894 9.52511 7.71159 9.55729C7.69047 9.56737 7.66818 9.57489 7.64486 9.57764C7.58621 9.58456 7.52398 9.56731 7.47477 9.51823L5.89437 7.93783C5.83336 7.87668 5.81808 7.78691 5.8488 7.71159C5.85896 7.68659 5.87409 7.6627 5.89437 7.64242L7.47477 6.06201Z" fill="var(--fill-0, #D3E0F8)"/>
<path d="M12.9793 3.54167C12.9797 3.35642 13.2038 3.2635 13.335 3.39437L14.9154 4.97477C14.9965 5.05607 14.9965 5.18803 14.9154 5.26937L13.335 6.84977C13.2038 6.98069 12.9796 6.8878 12.9793 6.70247V6.16374C12.9791 6.04887 12.8859 5.95542 12.771 5.9554L9.021 5.95622C8.90613 5.9561 8.81281 5.86274 8.81266 5.74788V5.53955C8.81269 5.45316 8.82116 5.36874 8.83789 5.28727C8.9545 4.71779 9.4588 4.28895 10.0627 4.28874H12.771C12.886 4.28872 12.9792 4.19533 12.9793 4.0804V3.54167Z" fill="var(--fill-0, #D3E0F8)"/>
</g>
</svg>
