<svg width="15" height="15" viewBox="0 0 15.0781 14.9666" fill="none" xmlns="http://www.w3.org/2000/svg">
<g id="Union">
<path d="M6.57796 0C8.4557 3.52188e-05 9.97803 1.52232 9.97803 3.40007C9.978 4.59806 9.35746 5.65012 8.42122 6.2557C9.88931 6.7093 11.1342 7.66951 11.9539 8.93148L11.8286 8.92578C11.0366 8.92578 10.3532 9.38675 10.0293 10.0545C9.87198 9.99556 9.70614 9.95331 9.53288 9.93571L9.32861 9.92594C8.2241 9.92594 7.32838 10.821 7.32829 11.9255V13.9258C7.32832 14.3076 7.43719 14.6632 7.62288 14.9666H2.25016C1.00752 14.9666 0 13.9591 0 12.7165V12.4666C1.60018e-05 9.50658 1.97907 7.01011 4.68587 6.22477C3.77661 5.61455 3.17792 4.57739 3.1779 3.40007C3.1779 1.5223 4.70019 0 6.57796 0Z" fill="var(--fill-0, #D3E0F8)"/>
<path d="M9.3278 11.1751C9.74201 11.1751 10.0781 11.5112 10.0781 11.9255V13.925C10.0781 14.3392 9.74201 14.6753 9.3278 14.6753C8.91359 14.6753 8.57747 14.3392 8.57747 13.925V11.9255C8.57747 11.5112 8.91359 11.1751 9.3278 11.1751Z" fill="var(--fill-0, #D3E0F8)"/>
<path d="M11.8278 10.175C12.242 10.175 12.5781 10.5111 12.5781 10.9253V13.925C12.5781 14.3392 12.242 14.6753 11.8278 14.6753C11.4136 14.6753 11.0775 14.3392 11.0775 13.925V10.9253C11.0775 10.5111 11.4136 10.175 11.8278 10.175Z" fill="var(--fill-0, #D3E0F8)"/>
<path d="M14.3278 9.1748C14.742 9.1748 15.0781 9.51092 15.0781 9.92513V13.925C15.0781 14.3392 14.742 14.6753 14.3278 14.6753C13.9136 14.6753 13.5775 14.3392 13.5775 13.925V9.92513C13.5775 9.51092 13.9136 9.1748 14.3278 9.1748Z" fill="var(--fill-0, #D3E0F8)"/>
</g>
</svg>
