<svg width="11" height="11" viewBox="0 0 10.6667 10.6667" fill="none" xmlns="http://www.w3.org/2000/svg">
<path id="Union" d="M5.33008 0C5.69827 0 5.99674 0.298477 5.99674 0.666667V4.66927H10C10.3682 4.66927 10.6667 4.96775 10.6667 5.33594C10.6667 5.70413 10.3682 6.0026 10 6.0026H5.99674V10C5.99674 10.3682 5.69827 10.6667 5.33008 10.6667C4.96189 10.6667 4.66341 10.3682 4.66341 10V6.0026H0.666667C0.298477 6.0026 1.60941e-08 5.70413 0 5.33594C-3.45158e-10 4.96775 0.298477 4.66927 0.666667 4.66927H4.66341V0.666667C4.66341 0.298477 4.96189 0 5.33008 0Z" fill="var(--fill-0, #05001A)"/>
</svg>
