<svg preserveAspectRatio="none" width="100%" height="100%" overflow="visible" style="display: block;" viewBox="0 0 6.66498 6.66823" fill="none" xmlns="http://www.w3.org/2000/svg">
<path id="Union" d="M5.95293 0.122039C6.11565 -0.0406795 6.37941 -0.0406796 6.54212 0.122039C6.70481 0.28476 6.70483 0.548523 6.54212 0.711231L3.91965 3.33371L6.54294 5.957C6.70566 6.11972 6.70566 6.38347 6.54294 6.54619C6.38022 6.70891 6.11646 6.70891 5.95374 6.54619L3.33045 3.9229L0.711231 6.54212C0.548524 6.70483 0.28476 6.70481 0.122039 6.54212C-0.0406797 6.3794 -0.0406795 6.11565 0.122039 5.95293L2.74126 3.33371L0.122853 0.7153C-0.0398659 0.552582 -0.0398659 0.288826 0.122853 0.126108C0.285571 -0.0366106 0.549327 -0.0366107 0.712045 0.126108L3.33045 2.74452L5.95293 0.122039Z" fill="var(--fill-0, #060C1F)" fill-opacity="0.5"/>
</svg>
