<svg width="13" height="13" viewBox="0 0 12.5 12.5" fill="none" xmlns="http://www.w3.org/2000/svg">
<g id="Icon container">
<path id="Union" d="M9.71862 8.08385C9.83227 7.8483 10.1674 7.84837 10.2811 8.08385L10.6239 8.79381C10.7467 9.04833 10.9523 9.25409 11.2069 9.37682L11.9159 9.71862C12.1516 9.83226 12.1516 10.1675 11.9159 10.2811L11.2069 10.6239C10.9521 10.7467 10.7467 10.9521 10.6239 11.2069L10.2811 11.9159C10.1675 12.1516 9.83226 12.1516 9.71862 11.9159L9.37682 11.2069C9.25409 10.9523 9.04833 10.7467 8.79381 10.6239L8.08385 10.2811C7.84837 10.1674 7.8483 9.83227 8.08385 9.71862L8.79381 9.37682C9.04837 9.25403 9.25403 9.04837 9.37682 8.79381L9.71862 8.08385ZM5.06237 0.542835C5.28972 0.0715421 5.96109 0.0714308 6.18834 0.542835L7.56334 3.39537C7.62475 3.52267 7.72706 3.62598 7.85436 3.68737L10.7069 5.06237C11.1784 5.28964 11.1784 5.96107 10.7069 6.18834L7.85436 7.56334C7.72726 7.62471 7.62472 7.72726 7.56334 7.85436L6.18834 10.7069C5.96107 11.1784 5.28964 11.1784 5.06237 10.7069L3.68737 7.85436C3.62598 7.72706 3.52267 7.62475 3.39537 7.56334L0.542835 6.18834C0.0714308 5.96109 0.071542 5.28972 0.542835 5.06237L3.39537 3.68737C3.52276 3.62596 3.62596 3.52276 3.68737 3.39537L5.06237 0.542835Z" fill="url(#paint0_linear_0_228)"/>
</g>
<defs>
<linearGradient id="paint0_linear_0_228" x1="0.18932" y1="0.18932" x2="12.0929" y2="12.0929" gradientUnits="userSpaceOnUse">
<stop stop-color="#3617CE"/>
<stop offset="1" stop-color="#9A85FF"/>
</linearGradient>
</defs>
</svg>
