<svg width="29" height="29" viewBox="0 0 29 29" fill="none" xmlns="http://www.w3.org/2000/svg">
<g id="ico_solid_home">
<mask id="mask0_0_220" style="mask-type:alpha" maskUnits="userSpaceOnUse" x="0" y="0" width="29" height="29">
<path id="maks" d="M14.4999 15.8182C18.6773 15.8182 22.6849 17.208 25.6387 19.68C26.7401 20.602 27.6619 21.6461 28.3843 22.7747C30.3442 25.8367 27.3123 29 23.6878 29H5.31205C1.68777 28.9998 -1.34412 25.8365 0.615561 22.7747C1.33826 21.6456 2.26181 20.6022 3.36372 19.68C6.31745 17.2081 10.3228 15.8183 14.4999 15.8182ZM14.4999 0C18.1245 0 21.0627 2.95085 21.0627 6.59091C21.0627 10.231 18.1245 13.1818 14.4999 13.1818C10.8756 13.1816 7.93716 10.2308 7.93716 6.59091C7.93716 2.95099 10.8756 0.000232003 14.4999 0Z" fill="var(--fill-0, #D2D9EB)"/>
</mask>
<g mask="url(#mask0_0_220)">
<g id="ico_solid_home_2">
<path id="bg" d="M14.4999 15.8201C18.6773 15.8201 22.6849 17.2099 25.6387 19.682C26.7401 20.6039 27.6619 21.648 28.3843 22.7766C30.3442 25.8386 27.3123 29.002 23.6878 29.002H5.31205C1.68777 29.0017 -1.34412 25.8384 0.615561 22.7766C1.33826 21.6476 2.26181 20.6042 3.36372 19.682C6.31745 17.21 10.3228 15.8202 14.4999 15.8201ZM14.4999 0.00195312C18.1245 0.00195312 21.0627 2.9528 21.0627 6.59286C21.0627 10.2329 18.1245 13.1838 14.4999 13.1838C10.8756 13.1835 7.93716 10.2328 7.93716 6.59286C7.93716 2.95295 10.8756 0.00218513 14.4999 0.00195312Z" fill="var(--fill-0, #B4C0DE)"/>
<path id="dim" d="M-10 0.998047L11.4361 -3.95088L19.273 32.2097L-2.16315 37.1586L-10 0.998047Z" fill="var(--fill-0, #D2D9EB)"/>
</g>
</g>
</g>
</svg>
