<svg preserveAspectRatio="none" width="100%" height="100%" overflow="visible" style="display: block;" viewBox="0 0 12.9167 11.6667" fill="none" xmlns="http://www.w3.org/2000/svg">
<path id="Union" d="M4.58333 0C5.04357 0 5.41667 0.373096 5.41667 0.833333V10.8333C5.41667 11.2936 5.04357 11.6667 4.58333 11.6667C4.1231 11.6667 3.75 11.2936 3.75 10.8333V0.833333C3.75 0.373096 4.1231 0 4.58333 0ZM8.33333 1.66667C8.79357 1.66667 9.16667 2.03976 9.16667 2.5V9.16667C9.16667 9.6269 8.79357 10 8.33333 10C7.8731 10 7.5 9.6269 7.5 9.16667V2.5C7.5 2.03976 7.8731 1.66667 8.33333 1.66667ZM0.833333 2.5C1.29357 2.5 1.66667 2.8731 1.66667 3.33333V8.33333C1.66667 8.79357 1.29357 9.16667 0.833333 9.16667C0.373096 9.16667 0 8.79357 0 8.33333V3.33333C0 2.8731 0.373096 2.5 0.833333 2.5ZM12.0833 2.5C12.5436 2.5 12.9167 2.8731 12.9167 3.33333V8.33333C12.9167 8.79357 12.5436 9.16667 12.0833 9.16667C11.6231 9.16667 11.25 8.79357 11.25 8.33333V3.33333C11.25 2.8731 11.6231 2.5 12.0833 2.5Z" fill="var(--fill-0, white)"/>
</svg>
