<svg preserveAspectRatio="none" width="100%" height="100%" overflow="visible" style="display: block;" viewBox="0 0 16.3245 14.9475" fill="none" xmlns="http://www.w3.org/2000/svg">
<path id="Union" d="M6.50065 0C10.0903 0.000219892 13.0004 2.9102 13.0005 6.49984C13.0005 7.7224 12.6613 8.86535 12.0744 9.84212L15.835 12.7124C16.4067 13.1489 16.4905 13.9783 16.0181 14.5207C15.5468 15.0612 14.7178 15.0928 14.2065 14.5898L10.8716 11.3094C9.71724 12.3592 8.18391 12.9996 6.50065 12.9997C2.91088 12.9996 0 10.0896 0 6.49984C8.80452e-05 2.91012 2.91093 8.80475e-05 6.50065 0ZM6.50065 1.66667C3.8314 1.66675 1.66757 3.83059 1.66748 6.49984C1.66748 9.16916 3.83135 11.3329 6.50065 11.333C9.16984 11.3328 11.3338 9.16908 11.3338 6.49984C11.3337 3.83067 9.16979 1.66689 6.50065 1.66667Z" fill="var(--fill-0, #060C1F)" fill-opacity="0.2"/>
</svg>
