<svg width="19" height="19" viewBox="0 0 18.6667 18.6667" fill="none" xmlns="http://www.w3.org/2000/svg">
<g id="Group 2147247939">
<path id="Rectangle 240651250" d="M0 8.53333C0 5.54639 0 4.05291 0.581299 2.91205C1.09262 1.90852 1.90852 1.09262 2.91205 0.581299C4.05291 0 5.54639 0 8.53333 0H10.1333C13.1203 0 14.6138 0 15.7546 0.581299C16.7581 1.09262 17.574 1.90852 18.0854 2.91205C18.6667 4.05291 18.6667 5.54639 18.6667 8.53333V10.1333C18.6667 13.1203 18.6667 14.6138 18.0854 15.7546C17.574 16.7581 16.7581 17.574 15.7546 18.0854C14.6138 18.6667 13.1203 18.6667 10.1333 18.6667H8.53333C5.54639 18.6667 4.05291 18.6667 2.91205 18.0854C1.90852 17.574 1.09262 16.7581 0.581299 15.7546C0 14.6138 0 13.1203 0 10.1333V8.53333Z" fill="var(--fill-0, #E2E6F1)"/>
<path id="Vector 27948" d="M10.0781 5.57227H7.32812V10.0723H10.0781C11.3208 10.0723 12.3281 9.06491 12.3281 7.82227C12.3281 6.57963 11.3208 5.57227 10.0781 5.57227Z" fill="var(--fill-0, #E2E6F1)"/>
<path id="Vector 27948 (Stroke)" d="M11.3281 7.82227C11.3281 7.13191 10.7685 6.57227 10.0781 6.57227H8.32812V9.07227H10.0781C10.7685 9.07227 11.3281 8.51262 11.3281 7.82227ZM13.3281 7.82227C13.3281 9.61719 11.8731 11.0723 10.0781 11.0723H8.32812V13.085C8.32793 13.6371 7.88029 14.085 7.32812 14.085C6.77596 14.085 6.32832 13.6371 6.32812 13.085V5.57227C6.32812 5.01998 6.77584 4.57227 7.32812 4.57227H10.0781C11.8731 4.57227 13.3281 6.02734 13.3281 7.82227Z" fill="var(--fill-0, #3617CE)"/>
</g>
</svg>
