<svg width="19" height="19" viewBox="0 0 18.6667 18.6667" fill="none" xmlns="http://www.w3.org/2000/svg">
<g id="Group 2147247949">
<g id="Group 2147247936">
<path id="Rectangle 240651250" d="M0 8.53334C0 5.54639 0 4.05291 0.581299 2.91205C1.09262 1.90852 1.90852 1.09262 2.91205 0.581299C4.05291 0 5.54639 0 8.53333 0H10.1333C13.1203 0 14.6138 0 15.7546 0.581299C16.7581 1.09262 17.574 1.90852 18.0854 2.91205C18.6667 4.05291 18.6667 5.54639 18.6667 8.53333V10.1333C18.6667 13.1203 18.6667 14.6138 18.0854 15.7546C17.574 16.7581 16.7581 17.574 15.7546 18.0854C14.6138 18.6667 13.1203 18.6667 10.1333 18.6667H8.53334C5.54639 18.6667 4.05291 18.6667 2.91205 18.0854C1.90852 17.574 1.09262 16.7581 0.581299 15.7546C0 14.6138 0 13.1203 0 10.1333V8.53334Z" fill="var(--fill-0, #E2E6F1)"/>
</g>
<path id="Union" d="M9.33301 5.37109C9.65451 5.37109 9.93984 5.57636 10.043 5.88086L11.5078 10.209L12.9727 5.88086C13.1055 5.48865 13.5306 5.27843 13.9229 5.41113C14.3151 5.54388 14.5252 5.96903 14.3926 6.36133L13.7002 8.4082H14.333C14.7472 8.4082 15.083 8.74399 15.083 9.1582C15.083 9.57242 14.7472 9.9082 14.333 9.9082H13.333C13.2862 9.9082 13.2407 9.90272 13.1963 9.89453L12.2178 12.7881C12.1147 13.0927 11.8294 13.2979 11.5078 13.2979C11.1862 13.2979 10.9009 13.0927 10.7979 12.7881L9.33301 8.45898L7.86816 12.7881C7.76509 13.0927 7.47977 13.2979 7.1582 13.2979C6.83664 13.2979 6.55132 13.0927 6.44824 12.7881L5.46875 9.89453C5.42465 9.90261 5.37945 9.9082 5.33301 9.9082H4.33301C3.91879 9.9082 3.58301 9.57242 3.58301 9.1582C3.58301 8.74399 3.91879 8.4082 4.33301 8.4082H4.96582L4.27344 6.36133C4.14081 5.96903 4.35087 5.54388 4.74316 5.41113C5.13544 5.27843 5.56052 5.48865 5.69336 5.88086L7.1582 10.209L8.62305 5.88086L8.66992 5.77148C8.79811 5.52831 9.05172 5.37109 9.33301 5.37109Z" fill="var(--fill-0, #3617CE)"/>
</g>
</svg>
