<svg width="18" height="18" viewBox="0 0 18 18" fill="none" xmlns="http://www.w3.org/2000/svg">
<g id="ico_benefit">
<path id="bg" d="M0 7.2C0 4.67976 0 3.41965 0.490471 2.45704C0.921901 1.61031 1.61031 0.921901 2.45704 0.490471C3.41965 0 4.67976 0 7.2 0H10.8C13.3202 0 14.5804 0 15.543 0.490471C16.3897 0.921901 17.0781 1.61031 17.5095 2.45704C18 3.41965 18 4.67976 18 7.2V10.8C18 13.3202 18 14.5804 17.5095 15.543C17.0781 16.3897 16.3897 17.0781 15.543 17.5095C14.5804 18 13.3202 18 10.8 18H7.2C4.67976 18 3.41965 18 2.45704 17.5095C1.61031 17.0781 0.921901 16.3897 0.490471 15.543C0 14.5804 0 13.3202 0 10.8V7.2Z" fill="var(--fill-0, #E2E6F1)"/>
<path id="ribbon" d="M9.64898 6.47927C9.90761 5.8838 10.2708 5.35312 10.6985 4.95515C11.1401 4.54441 11.6977 4.23516 12.3243 4.20651C12.9727 4.17717 13.5865 4.45293 14.0999 5.00459C14.6097 5.55312 14.8409 6.18861 14.6536 6.83522C14.4819 7.42543 14.0046 7.85989 13.5137 8.163C13.3978 8.23451 13.274 8.2997 13.1464 8.36358H17.9998V9.64898H11.6166C12.3781 10.265 12.8265 11.0148 13.0814 11.6053C13.2124 11.9089 13.2961 12.177 13.347 12.3709C13.3723 12.4674 13.3891 12.5481 13.4007 12.6054C13.4063 12.6333 13.4118 12.6576 13.4148 12.6746C13.4161 12.6828 13.4167 12.6919 13.4176 12.6972L13.419 12.7043V12.7071L13.4204 12.7085C13.4722 13.0592 13.2299 13.3871 12.8794 13.4402C12.5283 13.4928 12.1997 13.25 12.1463 12.8992V12.8964C12.1452 12.8897 12.1426 12.8764 12.1393 12.8597C12.1323 12.8249 12.1195 12.7689 12.1011 12.6986C12.0637 12.5561 12.0003 12.3498 11.8991 12.1153C11.695 11.6425 11.3456 11.0677 10.7663 10.6137C10.3103 10.2567 9.93447 10.0353 9.64898 9.89758V17.9998H8.36358V9.90041C8.07884 10.0382 7.70532 10.2588 7.25192 10.6137C6.67217 11.0678 6.32326 11.6423 6.11907 12.1153C6.01781 12.35 5.95454 12.556 5.91708 12.6986C5.89862 12.769 5.88595 12.8248 5.87894 12.8597C5.87556 12.8765 5.87305 12.8897 5.87188 12.8964V12.8992C5.81864 13.2498 5.48962 13.4923 5.13878 13.4402C4.78801 13.3872 4.54587 13.0594 4.59778 12.7085L4.59919 12.7071V12.7043L4.6006 12.6972C4.60147 12.6919 4.60208 12.6829 4.60343 12.6746C4.60641 12.6575 4.6119 12.6334 4.61755 12.6054C4.62909 12.5481 4.64588 12.4676 4.67123 12.3709C4.72218 12.1769 4.80574 11.9091 4.93679 11.6053C5.19178 11.0147 5.63967 10.2651 6.40158 9.64898H0V8.36358H4.87181C4.74416 8.29971 4.62047 8.23449 4.50455 8.163C4.01367 7.85995 3.53642 7.42527 3.36464 6.83522C3.17727 6.18837 3.40814 5.55326 3.91835 5.00459C4.43185 4.45278 5.04535 4.177 5.6939 4.20651C6.32019 4.23536 6.87831 4.54456 7.31972 4.95515C7.74514 5.3512 8.10593 5.8789 8.36358 6.47079V0H9.64898V6.47927ZM5.63599 5.49191C5.42681 5.48234 5.16223 5.55744 4.86051 5.88177C4.55624 6.20903 4.5773 6.39266 4.60202 6.47785C4.64408 6.6194 4.80232 6.83449 5.18115 7.06829C5.75808 7.42395 6.61664 7.68141 7.43413 7.78162C7.28234 7.02835 6.90223 6.32541 6.44254 5.8973C6.1483 5.62372 5.8672 5.50282 5.63599 5.49191ZM12.3822 5.49191C12.1509 5.50261 11.8702 5.62344 11.5757 5.8973C11.1157 6.32535 10.7359 7.02799 10.5841 7.78162C11.4019 7.68133 12.2602 7.42417 12.8371 7.06829C13.2162 6.8343 13.3743 6.6194 13.4162 6.47785C13.4409 6.39271 13.4614 6.20865 13.1577 5.88177C12.8562 5.5577 12.5913 5.48249 12.3822 5.49191Z" fill="var(--fill-0, #3617CE)"/>
</g>
</svg>
