<svg width="19" height="19" viewBox="0 0 18.6667 18.6667" fill="none" xmlns="http://www.w3.org/2000/svg">
<g id="Group 2147247938">
<path id="Rectangle 240651250" d="M0 8.53333C0 5.54639 0 4.05291 0.581299 2.91205C1.09262 1.90852 1.90852 1.09262 2.91205 0.581299C4.05291 0 5.54639 0 8.53333 0H10.1333C13.1203 0 14.6138 0 15.7546 0.581299C16.7581 1.09262 17.574 1.90852 18.0854 2.91205C18.6667 4.05291 18.6667 5.54639 18.6667 8.53333V10.1333C18.6667 13.1203 18.6667 14.6138 18.0854 15.7546C17.574 16.7581 16.7581 17.574 15.7546 18.0854C14.6138 18.6667 13.1203 18.6667 10.1333 18.6667H8.53333C5.54639 18.6667 4.05291 18.6667 2.91205 18.0854C1.90852 17.574 1.09262 16.7581 0.581299 15.7546C0 14.6138 0 13.1203 0 10.1333V8.53333Z" fill="var(--fill-0, #E2E6F1)"/>
<g id="Group 2147246451">
<path id="Ellipse 8407 (Stroke)" d="M7.3966 6.68661C7.39655 6.29125 7.07612 5.97076 6.68075 5.97076C6.28542 5.97081 5.96495 6.29128 5.9649 6.68661C5.9649 7.08198 6.28539 7.40241 6.68075 7.40246V8.90252C5.45693 8.90247 4.46484 7.91044 4.46484 6.68661C4.46489 5.46282 5.45696 4.47075 6.68075 4.4707C7.90458 4.4707 8.89661 5.46279 8.89666 6.68661C8.89666 7.91047 7.90461 8.90252 6.68075 8.90252V7.40246C7.07615 7.40246 7.3966 7.08201 7.3966 6.68661Z" fill="var(--fill-0, #3617CE)"/>
<path id="Ellipse 8408 (Stroke)" d="M12.7169 12.0011C12.7169 11.6057 12.3964 11.2852 12.0011 11.2852C11.6057 11.2853 11.2853 11.6057 11.2852 12.0011C11.2852 12.3964 11.6057 12.7169 12.0011 12.7169V14.217C10.7772 14.2169 9.78516 13.2249 9.78516 12.0011C9.7852 10.7773 10.7773 9.7852 12.0011 9.78516C13.2249 9.78516 14.2169 10.7772 14.217 12.0011C14.217 13.2249 13.2249 14.217 12.0011 14.217V12.7169C12.3965 12.7169 12.7169 12.3965 12.7169 12.0011Z" fill="var(--fill-0, #3617CE)"/>
<path id="Vector 27889 (Stroke)" d="M12.3613 5.27051C12.6542 4.97763 13.129 4.97766 13.4219 5.27051C13.7148 5.5634 13.7148 6.03816 13.4219 6.33105L6.33105 13.4219C6.03816 13.7148 5.5634 13.7148 5.27051 13.4219C4.97766 13.129 4.97763 12.6542 5.27051 12.3613L12.3613 5.27051Z" fill="var(--fill-0, #3617CE)"/>
</g>
</g>
</svg>
