<svg preserveAspectRatio="none" width="100%" height="100%" overflow="visible" style="display: block;" viewBox="0 0 9 10.709" fill="none" xmlns="http://www.w3.org/2000/svg">
<g id="Group 2147246095">
<path id="Vector" d="M6.34438 2.55261C7.22053 2.49806 8.19169 2.83039 8.69378 3.60231C8.72658 3.6526 8.64301 3.70074 8.60718 3.72573C7.00045 4.84555 7.21671 7.01395 9 7.8296C8.9725 7.95958 8.86613 8.24189 8.80619 8.369C8.53337 8.94789 8.20834 9.50024 7.78851 9.98232C7.21739 10.6381 6.66701 10.8905 5.82607 10.5714C5.61515 10.4914 5.21541 10.3166 5.01103 10.2927C4.43757 10.2256 4.14333 10.3187 3.6265 10.5215C3.39309 10.5811 3.25772 10.6665 2.99325 10.6913C2.16754 10.7686 1.65488 10.0949 1.22877 9.48471C0.523314 8.4745 0.0768766 7.26434 0.0069248 6.02904C-0.0437661 5.13367 0.180863 4.16913 0.779253 3.47792C1.39488 2.76973 2.44082 2.37421 3.36564 2.63156C3.68041 2.697 4.33422 3.06407 4.63714 3.01507C5.2248 2.92 5.70241 2.59797 6.34438 2.55261Z" fill="var(--fill-0, #060C1F)" fill-opacity="0.4"/>
<path id="Vector_2" d="M6.71265 0L6.73044 0.00978479C6.76043 0.052178 6.75231 0.131915 6.75324 0.182911C6.77502 1.37411 5.74199 2.48434 4.53431 2.4662C4.50879 2.43721 4.50695 2.42784 4.50277 2.38847C4.45019 1.87203 4.68216 1.33471 4.98947 0.930553C5.41701 0.368282 6.02792 0.0881212 6.71265 0Z" fill="var(--fill-0, #060C1F)" fill-opacity="0.4"/>
</g>
</svg>
