<svg width="8" height="8" viewBox="0 0 8 8" fill="none" xmlns="http://www.w3.org/2000/svg">
<path id="Union" d="M7.5 7C7.77614 7 8 7.22386 8 7.5C8 7.77614 7.77614 8 7.5 8H0.5C0.223858 8 0 7.77614 0 7.5C0 7.22386 0.223858 7 0.5 7H7.5ZM4 0C4.27611 4.06495e-05 4.5 0.223882 4.5 0.5V4.29297L6.14648 2.64648C6.34175 2.45126 6.65827 2.45123 6.85352 2.64648C7.04873 2.84174 7.04873 3.15826 6.85352 3.35352L4.35352 5.85352C4.33026 5.87678 4.30431 5.89719 4.27686 5.91553C4.2573 5.92859 4.23713 5.94019 4.21631 5.9502C4.19357 5.96114 4.16999 5.97058 4.14551 5.97803L4.09668 5.99023C4.09314 5.99093 4.08949 5.99109 4.08594 5.9917C4.05798 5.99655 4.02935 5.99999 4 6C3.97169 6 3.94402 5.99671 3.91699 5.99219C3.9118 5.99132 3.90653 5.99078 3.90137 5.98975C3.89563 5.9886 3.88994 5.98718 3.88428 5.98584C3.874 5.9834 3.86365 5.98112 3.85352 5.97803C3.8292 5.97059 3.80579 5.96109 3.7832 5.9502C3.76332 5.94062 3.74383 5.92984 3.7251 5.91748C3.69678 5.8988 3.67039 5.87741 3.64648 5.85352L1.14648 3.35352C0.951222 3.15825 0.951222 2.84175 1.14648 2.64648C1.34175 2.45126 1.65827 2.45123 1.85352 2.64648L3.5 4.29297V0.5C3.5 0.223858 3.72386 -1.20705e-08 4 0Z" fill="var(--fill-0, white)"/>
</svg>
