<svg preserveAspectRatio="none" width="100%" height="100%" overflow="visible" style="display: block;" viewBox="0 0 28 18" fill="none" xmlns="http://www.w3.org/2000/svg">
<g id="Brand/Logo" clip-path="url(#clip0_0_28)">
<path id="Vector" d="M15.2534 4.85588C15.2706 4.85481 15.2879 4.85392 15.3051 4.85324C15.614 4.84104 15.8883 4.9483 16.1155 5.16748C16.3901 5.43244 16.4829 5.79278 16.4841 6.17084C16.4872 7.0867 16.4786 8.00217 16.4851 8.91785C16.4892 9.51064 16.6696 10.0844 17.0848 10.4979C17.3837 10.7987 17.786 10.9585 18.1991 10.9405C18.5523 10.9297 18.8909 10.7901 19.1572 10.5454C19.8368 9.92443 19.8114 9.15694 19.8108 8.307L19.8094 6.77513C19.8092 6.52958 19.7938 6.03785 19.8383 5.8203C19.884 5.59788 19.9863 5.39278 20.1343 5.22704C20.3466 4.99096 20.6526 4.85659 20.9602 4.85201C21.2728 4.84592 21.5745 4.97386 21.7959 5.2065C21.9401 5.35482 22.0439 5.54113 22.0966 5.74606C22.1657 6.02438 22.1439 6.59232 22.1437 6.89417L22.143 8.32339C22.144 8.65278 22.1499 9.01665 22.1238 9.34332C22.0537 10.2187 21.7329 11.0998 21.2042 11.7828C20.5424 12.6421 19.5792 13.1832 18.5332 13.2835C17.4827 13.4025 16.4309 13.0718 15.6143 12.3656C14.7901 11.6511 14.3014 10.551 14.207 9.44302C14.1784 9.10762 14.1817 8.81553 14.1817 8.48066L14.1821 7.27838L14.1812 6.46522C14.1809 6.27711 14.173 6.0419 14.2027 5.86112C14.2383 5.64878 14.326 5.44992 14.4568 5.28414C14.6582 5.02943 14.9433 4.8857 15.2534 4.85588Z" fill="var(--fill-0, #FEFEFE)"/>
<path id="Vector_2" d="M9.39471 4.61577C9.5751 4.60003 9.7881 4.59947 9.96826 4.61024C10.8486 4.66344 11.6898 5.01143 12.3692 5.60347C12.4784 5.69852 12.6282 5.83173 12.7218 5.9437C12.9277 6.18772 13.0315 6.50888 13.0098 6.83456C12.9897 7.15066 12.8388 7.47955 12.609 7.68532C12.2294 8.02268 11.6895 8.07236 11.2601 7.80945C11.1254 7.7254 11.0188 7.6098 10.8984 7.50424C10.6111 7.2478 10.2549 7.09232 9.87965 7.05957C9.38655 7.01292 8.89649 7.17834 8.52098 7.5182C7.7188 8.23568 7.61179 9.40677 8.30109 10.2535C8.61942 10.6513 9.07512 10.899 9.56734 10.9419C10.1503 10.9884 10.6341 10.7751 11.052 10.3561C11.5302 9.87668 12.3132 9.92067 12.7368 10.4572C12.8891 10.6108 12.9883 10.9155 13.007 11.1329C13.0686 11.847 12.572 12.2778 12.0648 12.6412C10.497 13.7646 8.43433 13.6263 6.99366 12.338C6.16619 11.5958 5.6491 10.5405 5.55406 9.40008C5.45164 8.2048 5.81643 7.01723 6.56416 6.11173C7.28356 5.23952 8.30087 4.70187 9.39471 4.61577Z" fill="var(--fill-0, #FEFEFE)"/>
<path id="Vector_3" d="M8.3196 0H12.4648C12.7533 0.0699565 12.9632 0.170959 13.1301 0.450029C13.2605 0.670248 13.302 0.93621 13.2454 1.18882C13.1874 1.4405 13.0364 1.65741 12.826 1.79143C12.5358 1.97736 12.0425 1.92858 11.6966 1.92821L9.67781 1.92674C9.15446 1.92673 8.53535 1.91205 8.02029 1.96588C6.49937 2.12634 5.07562 2.82742 3.98333 3.95372C3.10195 4.86057 2.47456 6.00547 2.1699 7.263C1.73872 9.08336 2.00798 11.0095 2.91901 12.6217C3.83865 14.2397 5.33276 15.4047 7.07044 15.8587C7.95143 16.0896 8.54162 16.0715 9.43431 16.0714H10.8813H14.9935L17.9902 16.0716C19.46 16.0721 20.5142 16.1297 21.9109 15.5192C22.0994 15.4348 22.2842 15.3418 22.465 15.2405C22.7309 15.0889 23.0738 14.8115 23.3691 14.8169C23.6916 14.8229 24.1827 15.0096 24.5027 15.1105L25.7517 15.5023L25.189 14.2755C25.0773 14.0322 24.9251 13.7481 24.8602 13.4934C24.7509 13.0653 25.0509 12.6913 25.2316 12.3416C25.3586 12.0956 25.4646 11.8438 25.5626 11.5849C26.2391 9.7681 26.1722 7.73754 25.3778 5.97449C24.629 4.31792 23.2484 2.96527 21.6015 2.3533C21.1558 2.18604 20.6953 2.06607 20.2269 1.99519C19.6684 1.91561 19.1112 1.92697 18.5488 1.92698L16.6647 1.9269C16.617 1.92687 16.5658 1.92949 16.5187 1.92683C15.898 1.89177 15.1528 2.11658 14.8191 1.38675C14.7107 1.1517 14.6969 0.880461 14.7808 0.634529C14.9116 0.257026 15.1692 0.0885868 15.5234 0H19.6696C19.861 0.0315826 20.0461 0.0220327 20.2307 0.0434351C20.5061 0.0753722 20.8058 0.127221 21.0766 0.188039C23.1445 0.648159 24.9774 1.89824 26.2222 3.69737C27.0027 4.82235 27.5237 6.12327 27.7443 7.49712C27.7805 7.72553 27.8078 7.95541 27.8262 8.18617C27.8329 8.2782 27.8491 8.62939 27.8652 8.6938V9.46323L27.8627 9.47698C27.8172 9.74906 27.8134 10.1166 27.7621 10.4367C27.635 11.2548 27.4024 12.0508 27.0705 12.8026C26.9737 13.0225 26.8618 13.2198 26.7662 13.4285L27.4802 15.4672C27.5784 15.7469 27.8029 16.3365 27.8652 16.6091V16.8976C27.8415 16.9946 27.8228 17.0675 27.7846 17.1592C27.6381 17.5109 27.2844 17.7491 26.9182 17.7203C26.7431 17.7066 26.5602 17.6494 26.3894 17.6033L25.696 17.4168C24.9855 17.2271 24.2725 17.0417 23.5626 16.8491C23.5523 16.8464 23.5402 16.842 23.5301 16.8384C22.4307 17.469 21.3563 17.847 20.1107 17.9632C20.0394 17.9699 19.9361 17.9796 19.8689 17.9998H8.25023C8.14929 17.9723 7.89844 17.9692 7.78009 17.9553C7.57792 17.9317 7.38729 17.9029 7.18658 17.8652C6.00916 17.6438 4.88876 17.1653 3.89745 16.4604C2.12703 15.2022 0.867403 13.2918 0.366104 11.105C0.28598 10.7463 0.22466 10.3833 0.182421 10.0176C0.165721 9.8624 0.164419 9.61922 0.136912 9.47859L0.13444 9.46638V8.45056C0.155516 8.37307 0.169429 8.04692 0.181905 7.94408C0.210294 7.71007 0.244466 7.48382 0.287093 7.2519C0.533977 5.94708 1.0516 4.71587 1.80293 3.64637C3.05135 1.86518 4.88015 0.632237 6.9385 0.184019C7.20356 0.125458 7.50042 0.0756812 7.76979 0.0436764C7.95157 0.0220801 8.1296 0.0306508 8.3196 0Z" fill="var(--fill-0, #AACF38)"/>
</g>
<defs>
<clipPath id="clip0_0_28">
<rect width="28" height="18" fill="white"/>
</clipPath>
</defs>
</svg>
