<svg width="12" height="12" viewBox="0 0 12.4444 12.4444" fill="none" xmlns="http://www.w3.org/2000/svg">
<g id="Group 2147247937">
<path id="Rectangle 240651250" d="M0 5.68889C0 3.69759 0 2.70194 0.387532 1.94137C0.728416 1.27235 1.27235 0.728416 1.94137 0.387532C2.70194 0 3.69759 0 5.68889 0H6.75555C8.74685 0 9.7425 0 10.5031 0.387532C11.1721 0.728416 11.716 1.27235 12.0569 1.94137C12.4444 2.70194 12.4444 3.69759 12.4444 5.68889V6.75555C12.4444 8.74685 12.4444 9.7425 12.0569 10.5031C11.716 11.1721 11.1721 11.716 10.5031 12.0569C9.7425 12.4444 8.74685 12.4444 6.75555 12.4444H5.68889C3.69759 12.4444 2.70194 12.4444 1.94137 12.0569C1.27235 11.716 0.728416 11.1721 0.387532 10.5031C0 9.7425 0 8.74685 0 6.75555V5.68889Z" fill="var(--fill-0, #EBEEF6)"/>
<g id="Group 2147246136">
<path id="Vector 27858 (Stroke)" d="M2.896 8.89193V7.11393C2.896 6.74574 3.19447 6.44727 3.56266 6.44727C3.93085 6.44727 4.22933 6.74574 4.22933 7.11393V8.89193C4.22921 9.26002 3.93078 9.55859 3.56266 9.55859C3.19455 9.55859 2.89611 9.26002 2.896 8.89193Z" fill="var(--fill-0, #3617CE)"/>
<path id="Vector 27859 (Stroke)" d="M5.56006 8.88997V6.22331C5.56006 5.85512 5.85854 5.55664 6.22673 5.55664C6.59492 5.55664 6.89339 5.85512 6.89339 6.22331V8.88997C6.89339 9.25816 6.59492 9.55664 6.22673 9.55664C5.85854 9.55664 5.56006 9.25816 5.56006 8.88997Z" fill="var(--fill-0, #3617CE)"/>
<path id="Vector 27860 (Stroke)" d="M8.22412 8.88802V5.33268C8.22412 4.96449 8.5226 4.66602 8.89079 4.66602C9.25898 4.66602 9.55745 4.96449 9.55745 5.33268V8.88802C9.55745 9.25621 9.25898 9.55469 8.89079 9.55469C8.5226 9.55469 8.22412 9.25621 8.22412 8.88802Z" fill="var(--fill-0, #3617CE)"/>
</g>
</g>
</svg>
