<svg width="12" height="12" viewBox="0 0 12.4444 12.4444" fill="none" xmlns="http://www.w3.org/2000/svg">
<path id="Rectangle 240651250" d="M0 5.68889C0 3.69759 0 2.70194 0.387532 1.94137C0.728416 1.27235 1.27235 0.728416 1.94137 0.387532C2.70194 0 3.69759 0 5.68889 0H6.75556C8.74685 0 9.7425 0 10.5031 0.387532C11.1721 0.728416 11.716 1.27235 12.0569 1.94137C12.4444 2.70194 12.4444 3.69759 12.4444 5.68889V6.75556C12.4444 8.74685 12.4444 9.7425 12.0569 10.5031C11.716 11.1721 11.1721 11.716 10.5031 12.0569C9.7425 12.4444 8.74685 12.4444 6.75556 12.4444H5.68889C3.69759 12.4444 2.70194 12.4444 1.94137 12.0569C1.27235 11.716 0.728416 11.1721 0.387532 10.5031C0 9.7425 0 8.74685 0 6.75556V5.68889Z" fill="var(--fill-0, #3617CE)"/>
</svg>
